0
SECTION
2
HEADER
9
$ACADVER
1
AC1009
9
$INSUNITS
70
4
0
ENDSEC
0
SECTION
2
TABLES
0
TABLE
2
LAYER
70
5
0
LAYER
2
OUTLINE
70
0
62
7
6
CONTINUOUS
0
LAYER
2
HOLES
70
0
62
1
6
CONTINUOUS
0
LAYER
2
CENTER
70
0
62
3
6
CONTINUOUS
0
LAYER
2
DIM
70
0
62
5
6
CONTINUOUS
0
LAYER
2
TEXT
70
0
62
2
6
CONTINUOUS
0
ENDTAB
0
ENDSEC
0
SECTION
2
ENTITIES
0
CIRCLE
8
OUTLINE
10
0
20
0
30
0
40
35
0
CIRCLE
8
HOLES
10
0
20
0
30
0
40
4.05
0
CIRCLE
8
CENTER
10
0
20
0
30
0
40
22.5
0
CIRCLE
8
CENTER
10
0
20
0
30
0
40
12
0
CIRCLE
8
HOLES
10
22.5
20
0
30
0
40
2.25
0
CIRCLE
8
HOLES
10
0
20
22.5
30
0
40
2.25
0
CIRCLE
8
HOLES
10
-22.5
20
0
30
0
40
2.25
0
CIRCLE
8
HOLES
10
0
20
-22.5
30
0
40
2.25
0
LINE
8
CENTER
10
-42
20
0
30
0
11
42
21
0
31
0
0
LINE
8
CENTER
10
0
20
-42
30
0
11
0
21
42
31
0
0
LINE
8
DIM
10
-35
20
-45
30
0
11
35
21
-45
31
0
0
LINE
8
DIM
10
-35
20
-42
30
0
11
-35
21
-48
31
0
0
LINE
8
DIM
10
35
20
-42
30
0
11
35
21
-48
31
0
0
TEXT
8
TEXT
10
-12
20
-53
30
0
40
4
1
OD D70
0
TEXT
8
TEXT
10
10
20
36
30
0
40
3.5
1
Thickness 8 mm, 6061 Al
0
TEXT
8
TEXT
10
8
20
30
30
0
40
3.5
1
Center bore D8.1
0
TEXT
8
TEXT
10
8
20
24
30
0
40
3.5
1
4x D4.5 holes on PCD45
0
TEXT
8
TEXT
10
8
20
18
30
0
40
3.5
1
Magnet locating area D24
0
TEXT
8
TEXT
10
-34
20
38
30
0
40
4
1
Flange plate
0
LINE
8
DIM
10
0
20
0
30
0
11
22.5
21
0
31
0
0
TEXT
8
TEXT
10
7
20
3
30
0
40
3
1
PCD45
0
TEXT
8
TEXT
10
-13
20
-3
30
0
40
2.8
1
D8.1
0
LINE
8
DIM
10
-16
20
-16
30
0
11
-8.5
21
-8.5
31
0
0
TEXT
8
TEXT
10
-34
20
-22
30
0
40
3
1
D24 magnet seat
0
LINE
8
DIM
10
22.5
20
0
30
0
11
30
21
10
31
0
0
TEXT
8
TEXT
10
31
20
10
30
0
40
3
1
D4.5
0
ENDSEC
0
EOF
